<mxfile host="app.diagrams.net" modified="2023-08-19T19:52:36.706Z" agent="Mozilla/5.0 (Windows NT 10.0; Win64; x64) AppleWebKit/537.36 (KHTML, like Gecko) Chrome/115.0.0.0 Safari/537.36" etag="AOa7RcDxjlQyBwIWpkOY" version="21.6.8" type="device">
  <diagram name="Страница 1" id="7d_37-fTi4GixDlDA_kG">
    <mxGraphModel dx="521" dy="557" grid="1" gridSize="10" guides="1" tooltips="1" connect="1" arrows="1" fold="1" page="1" pageScale="1" pageWidth="827" pageHeight="1169" background="#ffffff" math="0" shadow="0">
      <root>
        <mxCell id="0" />
        <mxCell id="1" parent="0" />
        <mxCell id="MtCZTmYr21M7vjXc_pHW-1" value="&lt;b&gt;&lt;font style=&quot;font-size: 14px;&quot;&gt;Domain level&lt;/font&gt;&lt;/b&gt;" style="rounded=0;whiteSpace=wrap;html=1;fillColor=#dae8fc;strokeColor=#6c8ebf;" parent="1" vertex="1">
          <mxGeometry width="120" height="30" as="geometry" />
        </mxCell>
        <mxCell id="MtCZTmYr21M7vjXc_pHW-2" value="&lt;b&gt;&lt;font style=&quot;font-size: 14px;&quot;&gt;Infrastructure level&lt;/font&gt;&lt;/b&gt;" style="rounded=0;whiteSpace=wrap;html=1;fillColor=#dae8fc;strokeColor=#6c8ebf;" parent="1" vertex="1">
          <mxGeometry y="120" width="136" height="30" as="geometry" />
        </mxCell>
        <mxCell id="MtCZTmYr21M7vjXc_pHW-7" value="&lt;b&gt;Repository&lt;/b&gt;" style="rounded=1;whiteSpace=wrap;html=1;fillColor=#f5f5f5;fontColor=#333333;strokeColor=#666666;" parent="1" vertex="1">
          <mxGeometry x="150.5" y="320" width="120" height="30" as="geometry" />
        </mxCell>
        <mxCell id="MtCZTmYr21M7vjXc_pHW-9" value="&lt;b&gt;Exception&lt;/b&gt;" style="rounded=1;whiteSpace=wrap;html=1;fillColor=#f5f5f5;fontColor=#333333;strokeColor=#666666;" parent="1" vertex="1">
          <mxGeometry x="150.5" y="240" width="120" height="30" as="geometry" />
        </mxCell>
        <mxCell id="MtCZTmYr21M7vjXc_pHW-11" value="&lt;b&gt;Service&lt;/b&gt;" style="rounded=1;whiteSpace=wrap;html=1;fillColor=#f5f5f5;fontColor=#333333;strokeColor=#666666;" parent="1" vertex="1">
          <mxGeometry x="150" y="360" width="120" height="30" as="geometry" />
        </mxCell>
        <mxCell id="MtCZTmYr21M7vjXc_pHW-12" value="&lt;b&gt;&lt;font style=&quot;font-size: 14px;&quot;&gt;Facade level&lt;/font&gt;&lt;/b&gt;" style="rounded=0;whiteSpace=wrap;html=1;fillColor=#dae8fc;strokeColor=#6c8ebf;" parent="1" vertex="1">
          <mxGeometry y="80" width="120" height="30" as="geometry" />
        </mxCell>
        <mxCell id="OrPyA3RsfU1pUgoPuXtA-1" value="&lt;b&gt;Configuration&lt;/b&gt;" style="rounded=1;whiteSpace=wrap;html=1;fillColor=#f5f5f5;fontColor=#333333;strokeColor=#666666;" parent="1" vertex="1">
          <mxGeometry x="150.5" y="200" width="120" height="30" as="geometry" />
        </mxCell>
        <mxCell id="OrPyA3RsfU1pUgoPuXtA-22" value="&lt;b&gt;DTO&lt;/b&gt;" style="rounded=1;whiteSpace=wrap;html=1;fillColor=#f5f5f5;fontColor=#333333;strokeColor=#666666;" parent="1" vertex="1">
          <mxGeometry x="150" y="560" width="120" height="30" as="geometry" />
        </mxCell>
        <mxCell id="OrPyA3RsfU1pUgoPuXtA-31" value="&lt;b&gt;Utils&lt;/b&gt;" style="rounded=1;whiteSpace=wrap;html=1;fillColor=#f5f5f5;fontColor=#333333;strokeColor=#666666;" parent="1" vertex="1">
          <mxGeometry x="150.5" y="400" width="120" height="30" as="geometry" />
        </mxCell>
        <mxCell id="7jz2_esBmiBCuAwYqWAt-1" value="&lt;b&gt;Aspect&lt;/b&gt;" style="rounded=1;whiteSpace=wrap;html=1;fillColor=#f5f5f5;fontColor=#333333;strokeColor=#666666;" parent="1" vertex="1">
          <mxGeometry x="150.5" y="159" width="120" height="30" as="geometry" />
        </mxCell>
        <mxCell id="l8bWjbpyHUI-m3LitHQ1-9" value="&lt;b&gt;-&amp;nbsp;Classes designed for basic work at the infrastructure level.&lt;/b&gt;" style="text;html=1;strokeColor=none;fillColor=none;align=center;verticalAlign=middle;whiteSpace=wrap;rounded=0;" parent="1" vertex="1">
          <mxGeometry x="120" width="364" height="30" as="geometry" />
        </mxCell>
        <mxCell id="l8bWjbpyHUI-m3LitHQ1-10" value="&lt;b&gt;- Manipulations with the main business of the program.&lt;/b&gt;" style="text;html=1;strokeColor=none;fillColor=none;align=center;verticalAlign=middle;whiteSpace=wrap;rounded=0;" parent="1" vertex="1">
          <mxGeometry x="136" y="120" width="334" height="30" as="geometry" />
        </mxCell>
        <mxCell id="l8bWjbpyHUI-m3LitHQ1-11" value="&lt;b&gt;-&amp;nbsp;Classes interacting with third-party API.&lt;/b&gt;" style="text;html=1;strokeColor=none;fillColor=none;align=center;verticalAlign=middle;whiteSpace=wrap;rounded=0;" parent="1" vertex="1">
          <mxGeometry x="270.5" y="320" width="250" height="30" as="geometry" />
        </mxCell>
        <mxCell id="l8bWjbpyHUI-m3LitHQ1-12" value="&lt;b&gt;- Bussiness aspect.&lt;/b&gt;" style="text;html=1;strokeColor=none;fillColor=none;align=center;verticalAlign=middle;whiteSpace=wrap;rounded=0;" parent="1" vertex="1">
          <mxGeometry x="270.5" y="159" width="130" height="30" as="geometry" />
        </mxCell>
        <mxCell id="l8bWjbpyHUI-m3LitHQ1-13" value="&lt;b&gt;- Infrastructure frameworks configuration.&lt;/b&gt;" style="text;html=1;strokeColor=none;fillColor=none;align=center;verticalAlign=middle;whiteSpace=wrap;rounded=0;" parent="1" vertex="1">
          <mxGeometry x="270.5" y="200" width="260" height="30" as="geometry" />
        </mxCell>
        <mxCell id="l8bWjbpyHUI-m3LitHQ1-14" value="&lt;b&gt;- Bussiness exceptions, wrapping strategies API, global exception handling&lt;/b&gt;" style="text;html=1;strokeColor=none;fillColor=none;align=center;verticalAlign=middle;whiteSpace=wrap;rounded=0;" parent="1" vertex="1">
          <mxGeometry x="270.5" y="240" width="450" height="30" as="geometry" />
        </mxCell>
        <mxCell id="l8bWjbpyHUI-m3LitHQ1-17" value="&lt;b&gt;- Main manipulation with data filtering and validation&lt;/b&gt;" style="text;html=1;strokeColor=none;fillColor=none;align=center;verticalAlign=middle;whiteSpace=wrap;rounded=0;" parent="1" vertex="1">
          <mxGeometry x="270" y="360" width="320" height="30" as="geometry" />
        </mxCell>
        <mxCell id="l8bWjbpyHUI-m3LitHQ1-18" value="&lt;b&gt;- Useful static classes&lt;/b&gt;" style="text;html=1;strokeColor=none;fillColor=none;align=center;verticalAlign=middle;whiteSpace=wrap;rounded=0;" parent="1" vertex="1">
          <mxGeometry x="270.5" y="400" width="150" height="30" as="geometry" />
        </mxCell>
        <mxCell id="l8bWjbpyHUI-m3LitHQ1-19" value="&lt;b&gt;- Service wrapper with specific validation, data collector and DTO mapping&lt;/b&gt;" style="text;html=1;strokeColor=none;fillColor=none;align=center;verticalAlign=middle;whiteSpace=wrap;rounded=0;" parent="1" vertex="1">
          <mxGeometry x="121" y="80" width="439" height="30" as="geometry" />
        </mxCell>
        <mxCell id="l8bWjbpyHUI-m3LitHQ1-20" value="&lt;b&gt;- DTO representation level&lt;/b&gt;" style="text;html=1;strokeColor=none;fillColor=none;align=center;verticalAlign=middle;whiteSpace=wrap;rounded=0;" parent="1" vertex="1">
          <mxGeometry x="270.5" y="560" width="159.5" height="30" as="geometry" />
        </mxCell>
        <mxCell id="3KQXKHueSYx6VL7PENla-1" value="&lt;b&gt;&lt;font style=&quot;font-size: 14px;&quot;&gt;REST level&lt;/font&gt;&lt;/b&gt;" style="rounded=0;whiteSpace=wrap;html=1;fillColor=#dae8fc;strokeColor=#6c8ebf;" parent="1" vertex="1">
          <mxGeometry y="480" width="120" height="30" as="geometry" />
        </mxCell>
        <mxCell id="V57Vf6CfbFbocXPLcUR7-2" value="&lt;b&gt;- Rest client&lt;/b&gt;" style="text;html=1;strokeColor=none;fillColor=none;align=center;verticalAlign=middle;whiteSpace=wrap;rounded=0;" parent="1" vertex="1">
          <mxGeometry x="121" y="480" width="79" height="30" as="geometry" />
        </mxCell>
        <mxCell id="V57Vf6CfbFbocXPLcUR7-3" value="&lt;b&gt;Controller&lt;/b&gt;" style="rounded=1;whiteSpace=wrap;html=1;fillColor=#f5f5f5;fontColor=#333333;strokeColor=#666666;" parent="1" vertex="1">
          <mxGeometry x="150" y="520" width="120" height="30" as="geometry" />
        </mxCell>
        <mxCell id="V57Vf6CfbFbocXPLcUR7-4" value="&lt;b&gt;-&amp;nbsp; REST controllers&lt;/b&gt;" style="text;html=1;strokeColor=none;fillColor=none;align=center;verticalAlign=middle;whiteSpace=wrap;rounded=0;" parent="1" vertex="1">
          <mxGeometry x="270.5" y="520" width="119.5" height="30" as="geometry" />
        </mxCell>
        <mxCell id="V57Vf6CfbFbocXPLcUR7-5" value="&lt;b&gt;Exception&lt;/b&gt;" style="rounded=1;whiteSpace=wrap;html=1;fillColor=#f5f5f5;fontColor=#333333;strokeColor=#666666;" parent="1" vertex="1">
          <mxGeometry x="150.5" y="600" width="120" height="30" as="geometry" />
        </mxCell>
        <mxCell id="V57Vf6CfbFbocXPLcUR7-6" value="&lt;b&gt;- Exception handler and wrappers&lt;/b&gt;" style="text;html=1;strokeColor=none;fillColor=none;align=center;verticalAlign=middle;whiteSpace=wrap;rounded=0;" parent="1" vertex="1">
          <mxGeometry x="270.5" y="600" width="209.5" height="30" as="geometry" />
        </mxCell>
        <mxCell id="V57Vf6CfbFbocXPLcUR7-7" value="&lt;b&gt;Request&lt;/b&gt;" style="rounded=1;whiteSpace=wrap;html=1;fillColor=#f5f5f5;fontColor=#333333;strokeColor=#666666;" parent="1" vertex="1">
          <mxGeometry x="151" y="640" width="120" height="30" as="geometry" />
        </mxCell>
        <mxCell id="V57Vf6CfbFbocXPLcUR7-8" value="&lt;b&gt;-&amp;nbsp; Requests parameters&lt;/b&gt;" style="text;html=1;strokeColor=none;fillColor=none;align=center;verticalAlign=middle;whiteSpace=wrap;rounded=0;" parent="1" vertex="1">
          <mxGeometry x="270.5" y="640" width="149.5" height="30" as="geometry" />
        </mxCell>
        <mxCell id="V57Vf6CfbFbocXPLcUR7-9" value="&lt;b&gt;Wrapper&lt;/b&gt;" style="rounded=1;whiteSpace=wrap;html=1;fillColor=#f5f5f5;fontColor=#333333;strokeColor=#666666;" parent="1" vertex="1">
          <mxGeometry x="151" y="680" width="120" height="30" as="geometry" />
        </mxCell>
        <mxCell id="V57Vf6CfbFbocXPLcUR7-10" value="&lt;b&gt;- Additinal wrapping to represent data for client&lt;/b&gt;" style="text;html=1;strokeColor=none;fillColor=none;align=center;verticalAlign=middle;whiteSpace=wrap;rounded=0;" parent="1" vertex="1">
          <mxGeometry x="270.5" y="680" width="290" height="30" as="geometry" />
        </mxCell>
        <mxCell id="g09mJZT6U3KNm6j9VS4c-1" value="&lt;b&gt;Exception&lt;/b&gt;" style="rounded=1;whiteSpace=wrap;html=1;fillColor=#f5f5f5;fontColor=#333333;strokeColor=#666666;" parent="1" vertex="1">
          <mxGeometry x="150" y="40" width="120" height="30" as="geometry" />
        </mxCell>
        <mxCell id="g09mJZT6U3KNm6j9VS4c-2" value="&lt;b&gt;- Domain exception wrapping structures&lt;/b&gt;" style="text;html=1;strokeColor=none;fillColor=none;align=center;verticalAlign=middle;whiteSpace=wrap;rounded=0;" parent="1" vertex="1">
          <mxGeometry x="270.5" y="40" width="240" height="30" as="geometry" />
        </mxCell>
        <mxCell id="Ft-assZ2AyAAvlQpf20G-1" value="&lt;b&gt;Model&lt;/b&gt;" style="rounded=1;whiteSpace=wrap;html=1;fillColor=#f5f5f5;fontColor=#333333;strokeColor=#666666;" vertex="1" parent="1">
          <mxGeometry x="270.5" y="280" width="120" height="30" as="geometry" />
        </mxCell>
        <mxCell id="Ft-assZ2AyAAvlQpf20G-2" value="&lt;b&gt;- Bussiness exceptions&lt;/b&gt;" style="text;html=1;strokeColor=none;fillColor=none;align=center;verticalAlign=middle;whiteSpace=wrap;rounded=0;" vertex="1" parent="1">
          <mxGeometry x="390.5" y="280" width="139.5" height="30" as="geometry" />
        </mxCell>
        <mxCell id="Ft-assZ2AyAAvlQpf20G-3" value="&lt;b&gt;Validation&lt;/b&gt;" style="rounded=1;whiteSpace=wrap;html=1;fillColor=#f5f5f5;fontColor=#333333;strokeColor=#666666;" vertex="1" parent="1">
          <mxGeometry x="150" y="440" width="120" height="30" as="geometry" />
        </mxCell>
        <mxCell id="Ft-assZ2AyAAvlQpf20G-4" value="&lt;b&gt;- Request custom validations&lt;/b&gt;" style="text;html=1;strokeColor=none;fillColor=none;align=center;verticalAlign=middle;whiteSpace=wrap;rounded=0;" vertex="1" parent="1">
          <mxGeometry x="270" y="440" width="190" height="30" as="geometry" />
        </mxCell>
      </root>
    </mxGraphModel>
  </diagram>
</mxfile>
